<?xml version="1.0" standalone="no"?>
<!DOCTYPE svg PUBLIC "-//W3C//DTD SVG 20010904//EN"
 "http://www.w3.org/TR/2001/REC-SVG-20010904/DTD/svg10.dtd">
<svg version="1.0" xmlns="http://www.w3.org/2000/svg"
 width="512.000000pt" height="512.000000pt" viewBox="0 0 512.000000 512.000000"
 preserveAspectRatio="xMidYMid meet">
<metadata>
Created by potrace 1.11, written by Peter Selinger 2001-2013
</metadata>
<g transform="translate(0.000000,512.000000) scale(0.100000,-0.100000)"
fill="#000000" stroke="none">
<path d="M2363 5074 c4 -7 -2 -14 -13 -17 -11 -3 -18 -2 -16 2 6 9 -37 7 -52
-3 -7 -4 -12 -2 -12 5 0 8 -4 8 -15 -1 -10 -9 -15 -9 -15 -1 0 13 -22 10 -32
-4 -5 -6 -11 -5 -17 3 -4 8 -12 14 -16 14 -4 0 -12 -6 -16 -14 -7 -10 -9 -10
-9 0 0 10 -3 10 -14 0 -8 -7 -11 -17 -8 -23 2 -5 -1 -4 -9 3 -12 11 -12 14 1
22 9 6 10 10 3 10 -6 0 -15 -5 -18 -10 -4 -6 -11 -7 -17 -4 -6 4 -8 2 -5 -3 4
-6 0 -14 -9 -17 -8 -3 -12 -2 -9 4 9 14 -8 12 -24 -2 -11 -10 -13 -10 -7 0 9
15 -6 16 -22 0 -9 -9 -12 -9 -12 0 0 10 -5 10 -21 1 -16 -8 -20 -8 -14 1 6 9
2 9 -14 1 -16 -9 -21 -9 -21 1 0 9 -3 9 -12 0 -16 -16 -31 -15 -22 1 6 9 5 9
-8 0 -8 -7 -19 -9 -23 -5 -5 4 -5 -1 -2 -10 4 -10 2 -18 -3 -18 -6 0 -10 8
-11 18 0 11 -2 12 -6 4 -4 -10 -11 -9 -31 4 -27 17 -27 17 -10 -2 16 -19 16
-20 -2 -20 -10 0 -16 5 -12 11 3 5 -1 4 -10 -2 -8 -7 -18 -10 -22 -6 -4 4 -11
1 -16 -7 -8 -13 -10 -13 -10 -1 0 11 -4 10 -13 -4 -10 -12 -16 -14 -21 -7 -4
7 -12 12 -17 12 -6 0 -7 -6 -3 -12 5 -8 0 -7 -11 2 -11 9 -16 10 -11 3 4 -7 3
-13 -1 -13 -5 0 -15 6 -22 13 -10 10 -11 9 -6 -4 5 -13 0 -16 -22 -13 -15 1
-39 -4 -52 -13 -15 -9 -21 -10 -16 -2 6 9 2 10 -16 5 -13 -4 -29 -8 -36 -8 -7
-1 -10 -5 -7 -10 4 -5 0 -9 -7 -7 -28 3 -50 -1 -45 -9 3 -5 -1 -9 -9 -9 -8 0
-12 4 -9 9 3 4 1 8 -4 8 -6 0 -12 -6 -15 -14 -4 -9 -14 -12 -26 -9 -11 3 -29
-2 -41 -10 -12 -8 -31 -12 -42 -9 -16 4 -19 2 -13 -8 6 -10 4 -12 -8 -7 -9 3
-18 0 -21 -9 -3 -9 -11 -12 -17 -8 -6 3 -15 0 -20 -7 -7 -12 -9 -12 -9 0 0 11
-4 10 -16 -5 -8 -10 -13 -12 -9 -4 4 8 -1 6 -9 -4 -12 -15 -16 -16 -16 -5 -1
10 -3 9 -11 -3 -5 -10 -15 -18 -21 -18 -6 0 -20 -8 -31 -17 -10 -10 -29 -18
-41 -18 -11 -1 -20 -6 -19 -12 1 -6 -6 -9 -17 -6 -12 3 -20 0 -20 -6 0 -7 -4
-10 -9 -7 -5 3 -15 -2 -22 -12 -13 -15 -12 -16 3 -4 11 9 18 10 23 2 4 -6 3
-10 -2 -9 -4 1 -10 0 -13 -1 -3 -1 -14 -3 -24 -5 -11 -2 -23 -11 -28 -19 -5
-9 -15 -13 -25 -9 -12 5 -14 3 -8 -8 8 -12 6 -12 -9 0 -9 8 -16 10 -15 5 4
-18 -13 -43 -26 -38 -7 3 -19 -4 -25 -16 -8 -15 -18 -20 -31 -17 -17 4 -18 3
-8 -9 8 -10 8 -14 0 -14 -6 0 -20 -8 -31 -17 -11 -10 -26 -18 -32 -18 -6 0
-13 -7 -15 -15 -4 -13 -3 -13 6 0 7 10 11 11 11 3 0 -15 -37 -36 -50 -28 -6 4
-7 -1 -3 -11 5 -13 3 -15 -8 -9 -12 8 -12 6 0 -8 12 -15 12 -17 -2 -12 -8 4
-18 1 -23 -6 -5 -8 -3 -10 7 -5 8 4 5 0 -6 -9 -11 -9 -19 -21 -17 -27 2 -7 -5
-5 -15 2 -10 8 -15 10 -11 6 4 -5 0 -15 -10 -23 -9 -8 -12 -12 -5 -9 6 4 15 1
19 -5 4 -7 3 -9 -3 -6 -5 3 -22 -3 -39 -14 -28 -20 -28 -20 -4 -14 l25 6 -25
-15 c-14 -9 -20 -16 -15 -16 6 -1 -1 -6 -14 -11 -16 -6 -21 -14 -17 -25 5 -12
2 -15 -9 -10 -9 3 -13 2 -10 -4 3 -5 -5 -19 -17 -31 -21 -20 -21 -21 -3 -15
20 6 20 6 1 -9 -11 -8 -23 -15 -28 -15 -4 0 -8 -5 -8 -11 0 -5 6 -7 13 -4 6 4
4 0 -5 -8 -10 -8 -14 -18 -10 -22 4 -5 -1 -5 -11 -2 -15 6 -16 4 -6 -14 9 -17
8 -20 -2 -14 -9 6 -10 3 -5 -10 6 -16 4 -16 -11 -4 -9 8 -14 9 -10 2 4 -6 2
-15 -4 -19 -8 -4 -7 -9 2 -15 11 -7 10 -9 -3 -9 -9 0 -20 -5 -24 -12 -5 -7 -3
-8 5 -3 15 8 -8 -35 -23 -47 -5 -3 -11 -14 -12 -23 -1 -9 -8 -23 -15 -32 -17
-20 -21 -45 -6 -36 7 3 2 -5 -11 -19 -12 -13 -19 -28 -15 -31 3 -4 2 -7 -3 -7
-6 0 -10 -10 -11 -22 -1 -48 -3 -59 -12 -54 -5 3 -12 -1 -15 -10 -9 -24 -7
-31 4 -14 6 9 10 10 10 3 0 -6 -5 -15 -10 -18 -8 -5 -7 -12 2 -23 10 -12 10
-14 1 -8 -8 4 -13 2 -13 -4 0 -6 -4 -9 -9 -5 -6 3 -8 -4 -6 -15 2 -11 -2 -20
-8 -20 -7 0 -6 -4 3 -10 12 -7 12 -10 1 -10 -8 0 -11 -6 -7 -16 3 -8 2 -13 -3
-10 -14 9 -21 -20 -8 -33 8 -8 8 -11 -2 -11 -7 0 -10 -4 -6 -9 3 -5 0 -13 -6
-17 -8 -4 -7 -9 2 -15 11 -7 10 -9 -3 -9 -10 0 -18 -5 -18 -11 0 -5 4 -8 9 -4
5 3 12 1 16 -5 3 -5 -1 -10 -9 -10 -21 0 -31 -21 -15 -31 10 -6 11 -11 3 -16
-14 -10 -27 -46 -14 -38 6 3 9 -5 8 -19 -1 -13 -6 -22 -10 -20 -5 3 -5 11 -2
17 4 7 3 8 -2 4 -12 -12 -12 -30 1 -39 6 -5 6 -8 -2 -8 -8 0 -11 -11 -9 -30 2
-16 -1 -30 -5 -30 -5 0 -9 -5 -9 -11 0 -5 6 -7 13 -4 6 4 3 -1 -7 -9 -11 -9
-14 -16 -8 -16 7 0 12 -5 12 -11 0 -5 -4 -7 -10 -4 -6 4 -7 -1 -3 -11 4 -12 3
-15 -5 -10 -8 5 -10 2 -6 -8 3 -9 11 -13 18 -10 6 3 4 0 -4 -8 -8 -7 -14 -26
-14 -43 1 -16 -4 -33 -10 -37 -8 -5 -7 -8 2 -8 10 0 10 -5 2 -20 -8 -15 -8
-20 2 -20 6 0 3 -7 -8 -15 -10 -8 -14 -14 -9 -13 6 2 10 -1 10 -7 0 -5 -4 -9
-9 -7 -5 2 -4 -4 4 -12 8 -10 9 -16 2 -16 -6 0 -9 -7 -6 -15 4 -8 11 -12 17
-8 6 4 7 1 3 -6 -5 -7 -15 -10 -24 -6 -11 4 -8 -3 8 -21 14 -15 19 -24 13 -20
-7 4 -14 2 -14 -3 -3 -26 -4 -30 -11 -37 -4 -4 -2 -14 5 -22 9 -13 9 -14 -1
-8 -6 4 -12 2 -12 -3 0 -6 5 -11 10 -11 6 0 10 -5 10 -11 0 -5 -5 -7 -11 -3
-8 5 -8 1 0 -13 7 -14 7 -23 -1 -31 -8 -8 -8 -15 2 -27 7 -8 8 -15 3 -15 -11
0 -11 -151 1 -169 6 -9 5 -12 -2 -7 -7 4 -10 -17 -10 -69 0 -52 4 -73 12 -68
6 4 5 -1 -3 -10 -11 -14 -11 -20 0 -34 10 -11 10 -14 1 -9 -16 10 -16 -16 1
-33 6 -8 7 -11 1 -8 -7 4 -10 -8 -10 -33 1 -22 5 -40 9 -40 5 0 5 -5 1 -12 -4
-6 -8 -33 -9 -59 -1 -41 1 -46 14 -36 12 10 13 9 5 -8 -13 -29 -11 -65 6 -75
13 -8 13 -10 1 -10 -8 0 -11 -3 -8 -7 4 -3 2 -12 -5 -20 -8 -10 -8 -12 3 -8
10 4 15 -1 15 -14 0 -11 -4 -17 -8 -15 -4 3 -8 0 -8 -5 0 -6 5 -11 11 -11 6 0
9 -6 6 -14 -3 -7 0 -19 6 -25 9 -9 8 -11 -7 -5 -18 7 -18 6 0 -22 11 -15 13
-25 7 -21 -7 5 -13 4 -13 -2 0 -6 6 -11 13 -11 8 0 7 -4 -3 -10 -12 -8 -12
-10 5 -10 17 0 17 -2 5 -10 -8 -5 -10 -10 -4 -10 7 0 14 -11 16 -24 4 -19 1
-23 -11 -18 -14 5 -14 3 -2 -11 7 -9 11 -24 7 -32 -4 -11 -2 -14 6 -9 8 5 9 2
5 -11 -4 -9 -2 -24 4 -31 10 -12 8 -13 -7 -9 -17 6 -17 5 1 -7 14 -9 20 -24
20 -50 -1 -21 4 -38 10 -38 5 0 4 -4 -3 -9 -11 -7 -11 -9 1 -14 10 -4 13 -13
10 -28 -4 -13 -2 -20 3 -16 6 3 11 -4 11 -16 2 -17 0 -19 -7 -7 -6 9 -10 10
-10 3 0 -6 5 -15 10 -18 6 -4 10 -12 9 -18 -3 -27 2 -38 14 -31 6 4 9 4 5 -1
-4 -4 -3 -15 4 -22 9 -11 9 -17 -3 -24 -12 -7 -12 -9 1 -9 12 0 12 -2 2 -9
-11 -7 -11 -9 2 -14 10 -4 16 -18 16 -37 0 -16 5 -30 11 -30 6 0 8 -9 4 -20
-5 -16 -3 -19 11 -13 14 5 15 3 4 -17 -10 -18 -9 -21 1 -15 9 6 10 3 6 -9 -6
-14 -3 -17 8 -12 9 3 14 2 10 -3 -3 -5 1 -12 7 -15 7 -3 2 -3 -12 0 -21 4 -22
3 -7 -6 9 -6 15 -15 12 -20 -3 -4 2 -11 11 -14 8 -3 13 -10 10 -15 -4 -5 -1
-15 6 -23 12 -12 17 -28 20 -65 1 -7 5 -13 10 -13 4 0 8 -7 8 -16 0 -9 5 -12
12 -8 8 5 7 0 -2 -11 -9 -11 -10 -16 -3 -11 7 4 13 2 13 -3 0 -23 2 -26 22
-34 16 -5 18 -10 9 -21 -9 -10 -7 -17 6 -27 17 -13 17 -13 3 6 -14 18 -14 19
2 7 10 -8 17 -17 16 -20 -3 -25 4 -42 17 -42 9 0 12 -6 8 -17 -5 -12 -2 -15
10 -10 9 3 16 3 15 -1 -2 -12 15 -47 31 -60 9 -8 10 -10 3 -7 -11 6 -12 3 -3
-14 7 -11 14 -21 17 -21 3 0 2 5 -2 12 -5 7 -3 8 5 4 7 -5 10 -15 6 -24 -3 -9
-3 -13 1 -10 8 8 28 -10 37 -34 3 -10 13 -18 21 -18 8 0 18 -5 22 -12 5 -7 2
-8 -7 -3 -8 4 0 -6 18 -23 17 -16 29 -33 26 -36 -4 -3 1 -6 9 -6 9 0 19 -7 22
-16 3 -9 11 -12 18 -8 7 4 10 4 6 0 -9 -11 30 -48 43 -41 5 4 8 1 7 -6 -2 -7
2 -13 9 -14 6 0 15 -4 20 -9 5 -5 2 -6 -7 -1 -10 5 -9 2 3 -11 15 -17 19 -17
28 -4 8 11 9 9 4 -9 -5 -15 -3 -21 3 -17 6 3 13 2 17 -4 4 -6 11 -8 16 -5 5 3
6 -2 2 -11 -4 -12 -3 -15 5 -10 7 4 12 2 12 -3 0 -6 10 -11 23 -11 18 0 19 -2
7 -11 -12 -9 -11 -10 7 -6 17 4 20 1 15 -12 -5 -14 -4 -14 12 -2 14 12 17 12
14 1 -2 -8 6 -16 17 -18 11 -2 28 -14 38 -25 10 -12 16 -17 13 -10 -4 6 -1 15
5 19 7 4 9 3 6 -2 -3 -6 -2 -16 4 -24 7 -13 9 -13 9 -1 0 9 6 7 19 -8 14 -16
21 -18 24 -9 4 8 6 7 6 -4 1 -10 6 -18 12 -18 5 0 7 4 4 10 -3 6 1 7 9 4 9 -3
13 -10 10 -15 -4 -8 26 -14 49 -10 5 1 5 -4 1 -10 -5 -9 -2 -10 10 -6 10 4 19
1 22 -8 4 -8 10 -15 16 -15 5 0 6 6 3 12 -4 7 3 2 14 -11 12 -13 21 -19 21
-14 0 5 7 10 15 10 11 0 12 -4 4 -13 -8 -10 -2 -12 26 -10 24 2 38 -1 42 -10
3 -8 9 -11 14 -8 5 3 9 0 9 -5 0 -6 5 -11 11 -11 5 0 8 4 5 9 -4 5 5 4 19 -2
14 -7 25 -16 25 -22 0 -5 5 -3 10 5 6 9 10 11 10 3 0 -7 6 -10 14 -7 8 3 17 0
22 -7 5 -8 3 -10 -7 -4 -8 5 -11 4 -6 0 4 -5 16 -9 27 -10 15 -1 17 1 9 12
-15 18 -4 17 14 -2 8 -8 31 -15 52 -17 20 -1 39 -6 42 -11 3 -5 9 -4 13 2 5 9
13 9 33 0 15 -7 23 -17 20 -23 -4 -6 1 -5 10 3 14 11 17 11 17 0 0 -11 2 -11
10 1 6 10 10 11 10 3 0 -7 5 -13 11 -13 5 0 7 6 3 12 -6 10 -4 10 7 2 22 -16
93 -18 83 -2 -4 8 -3 10 2 5 5 -5 9 -14 9 -20 0 -7 19 -12 50 -12 28 -1 56 -5
63 -9 7 -4 12 -3 12 1 0 5 9 9 19 9 16 0 18 -3 8 -15 -10 -12 -9 -13 10 -3 26
14 36 15 29 3 -4 -5 2 -8 11 -6 10 1 27 -2 38 -8 l20 -10 -20 24 c-14 16 -15
20 -3 10 9 -7 23 -9 29 -5 8 5 9 3 4 -5 -5 -10 3 -12 33 -10 23 2 44 0 48 -4
15 -15 26 -6 13 11 -13 16 -13 16 7 -1 23 -19 39 -23 28 -6 -4 8 -1 8 12 2 11
-5 145 -9 299 -8 183 1 285 -3 294 -9 11 -9 13 -8 7 2 -6 11 1 12 38 8 27 -2
44 -1 41 5 -3 5 0 7 7 4 7 -2 30 -6 51 -8 29 -3 37 -1 33 9 -3 8 0 11 9 7 8
-3 13 -9 10 -13 -3 -5 4 -6 15 -3 11 3 18 8 16 12 -3 4 5 8 17 8 18 2 19 0 7
-8 -12 -9 -12 -10 3 -5 10 3 21 6 23 6 3 0 2 6 -2 13 -5 8 -2 8 9 -2 13 -10
17 -10 17 -1 0 10 3 10 15 0 12 -10 15 -10 15 1 0 12 2 12 9 0 6 -9 10 -10 16
-2 5 9 11 9 23 -1 13 -11 14 -11 7 1 -6 11 -4 13 8 8 10 -4 17 -1 17 6 0 8 2
9 8 1 4 -6 18 -10 32 -8 14 1 31 3 38 3 6 1 12 9 12 19 0 14 2 14 9 3 8 -13
12 -13 27 0 16 12 17 12 11 -4 -6 -16 -5 -16 20 0 15 10 24 13 20 6 -5 -7 -1
-9 13 -6 11 3 17 9 14 14 -8 14 3 11 19 -6 13 -13 16 -13 21 1 4 10 2 13 -7 8
-6 -4 -8 -3 -4 1 10 12 38 15 32 4 -4 -5 1 -6 9 -3 9 3 13 10 10 15 -3 5 6 5
20 -1 16 -6 26 -6 26 0 0 5 7 6 17 3 12 -5 14 -3 8 8 -4 8 -5 11 0 7 4 -4 15
-2 23 5 11 8 14 8 9 0 -4 -6 -3 -14 3 -18 5 -3 10 2 10 11 0 14 3 15 11 7 9
-9 15 -8 26 2 7 8 21 11 30 8 12 -5 14 -3 8 7 -6 10 -4 12 8 7 9 -3 19 -2 22
3 3 5 13 6 22 3 10 -4 14 -2 10 4 -10 16 18 24 33 10 10 -9 11 -9 6 0 -5 9 1
12 23 9 17 -2 29 -1 27 3 -2 3 2 11 9 18 11 10 15 10 18 0 4 -9 6 -9 6 1 1 6
10 12 21 12 14 0 18 5 14 18 -4 10 -3 13 3 6 9 -13 45 -15 37 -2 -3 4 2 8 10
8 9 0 16 6 16 13 0 8 4 7 10 -3 8 -13 10 -13 10 2 0 11 5 15 15 12 9 -4 15 0
15 7 0 11 3 11 10 -1 8 -13 10 -13 10 2 0 9 5 20 12 24 6 4 8 3 5 -3 -3 -5 0
-10 7 -10 9 0 12 7 8 16 -5 14 -4 14 12 2 9 -8 16 -10 15 -5 -4 21 2 28 11 14
8 -13 10 -13 10 2 0 11 12 21 33 26 19 5 32 15 31 24 -1 8 5 15 12 15 7 0 11
-4 8 -9 -3 -4 2 -5 10 -2 9 3 12 12 9 21 -4 11 -2 14 5 9 6 -4 19 2 29 14 10
11 24 20 33 20 13 0 13 2 0 11 -12 9 -10 10 8 6 13 -3 22 -3 19 0 -9 8 17 32
27 25 5 -3 6 3 2 14 -4 10 -4 15 0 12 9 -10 46 11 39 21 -3 5 2 12 11 15 8 3
12 11 8 17 -4 8 -3 9 5 5 9 -6 9 -12 -1 -24 -9 -12 -6 -11 10 2 17 15 20 22
10 29 -9 6 -6 7 9 4 16 -4 20 -1 16 11 -4 10 -2 13 5 8 7 -4 12 -3 12 1 0 5 7
18 16 29 8 10 12 13 8 5 -5 -10 -3 -12 5 -7 7 5 10 14 7 22 -3 8 0 13 6 11 7
-1 18 10 25 25 8 16 19 28 24 28 6 0 7 5 3 12 -5 8 -2 9 11 4 16 -6 16 -4 4
11 -9 11 -10 14 -1 9 6 -4 12 -3 12 1 0 5 7 18 16 29 8 10 12 13 8 5 -5 -10
-3 -12 5 -7 9 6 9 11 0 22 -11 14 -10 15 14 18 6 1 11 11 11 24 -1 19 1 20 14
10 9 -8 13 -8 9 -2 -4 6 2 22 13 34 11 13 20 27 20 32 0 6 10 24 22 41 12 17
16 27 7 22 -8 -5 -6 1 5 13 10 12 23 19 29 15 6 -3 7 -1 3 6 -4 6 -13 8 -19 4
-7 -4 -7 0 1 10 8 9 11 20 8 25 -3 6 2 16 12 23 16 13 16 13 2 -6 -14 -18 -14
-19 2 -7 9 8 14 20 11 28 -3 8 3 22 13 30 11 9 13 13 7 9 -9 -4 -11 -1 -7 9 3
9 10 14 14 11 4 -3 7 8 6 25 -2 21 1 27 10 19 8 -6 11 -4 11 8 0 46 4 64 12
59 5 -3 12 1 15 10 10 25 7 36 -6 28 -7 -4 -4 2 6 14 11 12 15 22 10 22 -5 0
-1 5 9 11 13 8 15 14 7 30 -8 14 -8 19 1 19 6 0 9 6 6 14 -4 9 1 17 11 19 14
4 14 5 -2 6 -20 1 -20 1 0 16 14 11 15 14 4 15 -10 0 -7 5 8 16 18 12 20 19
12 29 -14 17 -3 58 12 49 6 -4 8 -1 6 7 -3 8 -12 13 -19 11 -10 -3 -9 1 2 15
9 10 15 28 14 40 -1 13 7 32 17 43 17 18 17 20 1 20 -15 0 -15 2 3 16 10 8 13
13 7 9 -7 -3 -13 -1 -13 4 0 6 6 11 13 11 8 0 7 4 -3 10 -9 6 -10 10 -3 10 6
0 10 9 8 20 -2 11 1 20 7 20 7 0 6 6 -2 15 -10 12 -10 15 1 15 11 0 11 2 -1
10 -11 7 -11 10 -2 10 8 0 10 5 6 12 -5 8 -2 9 11 4 14 -5 16 -4 6 8 -6 7 -8
22 -4 31 5 14 3 16 -8 10 -12 -8 -12 -6 -1 8 8 9 11 21 7 27 -3 5 0 10 7 10 9
0 9 3 -2 10 -9 6 -11 10 -3 10 7 0 10 7 7 15 -4 8 0 23 7 32 12 15 12 16 -5 9
-19 -7 -19 -6 -2 13 17 18 17 20 -1 31 -16 10 -15 11 7 6 24 -5 24 -4 6 9 -11
8 -15 15 -9 15 6 0 14 7 17 16 3 8 2 12 -3 9 -5 -3 -12 -1 -16 5 -3 5 2 10 11
10 16 0 16 2 -1 20 -18 20 -18 21 1 14 17 -7 18 -6 4 11 -8 10 -10 16 -5 13 7
-5 10 22 10 80 -1 48 2 92 7 99 5 6 5 14 -2 18 -7 4 -7 12 0 25 7 13 7 21 0
25 -7 4 -7 13 0 26 7 12 7 19 1 19 -11 0 -9 39 2 57 4 6 3 14 -3 18 -5 3 -10
11 -10 16 0 6 6 7 13 3 9 -6 9 -5 0 7 -7 9 -9 20 -3 29 5 9 5 20 -2 28 -9 10
-8 16 1 22 7 4 9 10 5 13 -5 3 -9 55 -9 115 0 87 -3 108 -12 100 -18 -15 -16
-2 3 16 14 15 14 16 -2 16 -16 0 -16 1 2 14 10 8 16 18 11 22 -4 4 -7 2 -7 -4
0 -21 -16 -13 -17 8 -1 11 1 19 5 16 4 -2 7 6 7 19 0 13 -4 21 -9 18 -5 -3 -6
0 -4 8 3 8 1 24 -3 37 -5 12 -5 22 0 22 4 0 6 11 3 25 -2 14 -8 23 -12 20 -9
-6 -7 21 2 31 9 8 -2 35 -11 29 -4 -2 -8 2 -8 10 0 8 4 12 9 9 12 -8 10 10 -4
24 -9 9 -9 12 2 12 10 0 11 3 3 11 -6 6 -9 18 -6 27 5 11 3 13 -8 7 -12 -7
-12 -6 -1 7 10 12 10 18 1 23 -8 6 -7 10 2 16 10 6 11 9 2 9 -7 0 -13 12 -13
26 0 14 -4 23 -8 20 -4 -2 -9 5 -9 17 -2 17 0 19 7 7 16 -24 11 -1 -6 32 -9
16 -11 27 -5 24 17 -11 13 11 -5 29 -9 8 -13 22 -10 30 3 8 1 15 -4 15 -6 0
-10 5 -10 11 0 5 6 7 13 3 6 -4 3 3 -8 16 -11 13 -14 20 -7 16 6 -4 12 -3 12
3 0 5 -5 11 -10 13 -6 2 -12 13 -13 26 0 12 -6 22 -11 22 -6 0 -5 5 1 11 9 9
8 16 -3 27 -8 8 -13 21 -10 28 3 7 1 16 -5 19 -5 4 -7 11 -4 16 4 5 1 9 -5 9
-6 0 -8 5 -5 10 3 6 2 10 -3 10 -6 0 -13 7 -16 16 -3 8 -2 12 4 9 6 -4 7 2 1
18 -6 14 -7 28 -3 32 4 4 0 5 -8 3 -8 -1 -14 3 -12 10 1 6 -3 12 -9 12 -8 0
-8 4 0 14 14 17 -2 31 -21 20 -9 -5 -9 -2 1 9 10 12 10 17 1 17 -6 0 -10 6 -7
13 6 16 -12 49 -23 42 -5 -3 -12 0 -16 6 -4 7 -3 9 4 5 6 -4 10 1 9 13 -1 14
-5 17 -13 10 -8 -7 -15 -6 -20 2 -4 8 -3 9 4 5 8 -5 11 1 10 18 -2 18 -6 22
-14 15 -9 -8 -11 -5 -7 10 3 12 1 21 -6 21 -6 0 -11 7 -11 15 0 8 -4 15 -10
15 -5 0 -10 9 -10 19 0 11 -5 23 -12 27 -7 5 -8 3 -3 -6 6 -9 4 -11 -4 -6 -7
5 -10 11 -7 14 3 3 0 12 -7 20 -10 13 -9 14 3 7 8 -4 6 1 -5 12 -11 11 -23 19
-27 17 -3 -2 -4 5 -1 16 4 16 2 19 -11 14 -12 -5 -15 -2 -10 10 5 14 -4 20
-27 18 -3 -1 -6 6 -6 13 0 12 3 12 16 2 14 -10 14 -10 4 4 -7 9 -9 19 -5 24 4
4 -3 2 -16 -4 -12 -7 -22 -8 -21 -4 4 23 -2 43 -11 38 -9 -6 -14 8 -11 28 1 5
-3 6 -8 3 -12 -8 -34 21 -26 34 4 6 3 10 -2 9 -24 -4 -43 3 -43 16 0 15 -38
41 -53 37 -5 -1 -6 2 -3 6 9 15 -40 66 -54 57 -9 -5 -11 -4 -6 3 4 7 2 12 -4
12 -6 0 -8 4 -5 10 4 6 -1 7 -11 3 -14 -5 -16 -3 -10 12 4 11 4 16 0 12 -4 -4
-17 1 -28 10 -16 14 -18 14 -11 3 6 -9 2 -7 -7 3 -11 12 -25 17 -34 13 -15 -6
-15 -4 -3 11 9 11 10 14 2 9 -7 -4 -13 -3 -13 1 0 5 -10 14 -22 22 -22 13 -22
13 -8 -6 8 -10 4 -8 -9 7 -27 27 -29 28 -43 8 -6 -9 -7 -5 -3 11 5 15 3 21 -3
17 -6 -3 -17 1 -25 9 -12 11 -17 12 -20 2 -3 -6 -6 -3 -6 8 -1 17 -3 17 -11 5
-9 -13 -10 -13 -11 0 -1 8 -1 18 0 22 0 4 -7 4 -16 1 -11 -4 -14 -3 -9 5 9 16
-7 15 -22 0 -9 -9 -12 -8 -12 6 0 9 -4 14 -10 11 -5 -3 -10 -1 -10 6 0 7 -3
10 -6 6 -4 -3 -13 0 -21 8 -8 8 -26 15 -39 15 -17 0 -23 4 -18 13 4 6 3 9 -1
4 -5 -4 -18 -1 -29 6 -12 7 -31 12 -44 11 -16 -1 -21 3 -18 12 4 10 -2 9 -22
-3 -22 -14 -25 -15 -15 -2 10 12 10 16 0 16 -6 0 -21 4 -31 9 -12 4 -17 4 -13
-3 3 -5 0 -10 -8 -10 -8 0 -11 5 -8 10 4 6 -1 8 -11 4 -13 -5 -17 -3 -13 6 4
10 -3 13 -24 12 -16 -1 -29 3 -29 9 0 6 -5 4 -10 -4 -8 -12 -10 -12 -10 -1 0
10 -3 11 -13 2 -17 -14 -28 -4 -19 17 5 15 4 15 -11 3 -14 -11 -17 -11 -17 0
0 10 -3 10 -12 1 -9 -9 -15 -7 -25 6 -8 9 -12 12 -8 5 4 -9 -4 -11 -27 -8 -18
2 -34 9 -36 15 -3 7 -9 7 -20 -2 -10 -8 -13 -9 -9 -1 4 6 3 14 -3 18 -5 3 -10
-2 -11 -12 0 -16 -1 -16 -9 2 -5 11 -9 14 -9 6 -1 -9 -5 -10 -13 -3 -7 5 -25
9 -40 7 -16 -2 -28 1 -28 6 0 5 5 9 12 9 6 0 9 3 6 6 -4 3 -17 -2 -31 -11 -19
-12 -27 -13 -33 -4 -4 7 -3 9 4 5 6 -3 13 -3 16 2 2 4 -4 9 -15 9 -10 1 -19
-3 -19 -8 0 -6 -5 -7 -10 -4 -6 4 -8 12 -4 18 3 7 -2 3 -10 -7 -10 -12 -16
-15 -16 -7 0 7 -6 11 -14 8 -8 -3 -17 -1 -20 6 -3 8 -5 8 -5 -2 -1 -11 -4 -11
-16 -1 -12 10 -15 10 -15 -1 0 -11 -2 -11 -9 0 -8 13 -12 13 -27 0 -11 -9 -15
-9 -10 -1 4 7 2 12 -6 12 -8 0 -20 -6 -27 -12 -9 -8 -11 -8 -8 -2 4 7 0 15 -9
18 -12 5 -15 2 -10 -11 4 -11 -1 -9 -14 7 -17 21 -19 22 -14 5 5 -19 5 -19 -9
-3 -16 20 -28 14 -20 -10 4 -11 -1 -9 -14 6 -21 23 -39 30 -27 11 4 -7 -1 -7
-16 1 -15 8 -20 8 -16 1 4 -6 2 -11 -3 -11 -6 0 -11 6 -11 13 0 8 -4 7 -10 -3
-6 -10 -10 -11 -10 -2 0 6 -5 12 -11 12 -5 0 -8 -4 -5 -8 3 -5 -1 -9 -9 -9 -8
0 -15 4 -15 9 0 4 -5 8 -11 8 -5 0 -8 -4 -5 -9 4 -5 -4 -7 -16 -3 -16 4 -19 2
-13 -8 5 -9 4 -11 -4 -6 -6 4 -9 12 -6 17 7 11 -24 7 -44 -5 -9 -6 -12 -5 -7
2 4 7 -4 10 -24 10 -16 -1 -30 -6 -30 -12 0 -7 -3 -7 -8 -1 -10 14 -175 17
-166 3 5 -7 3 -8 -7 -2 -21 13 -100 13 -92 0 4 -6 -4 -2 -17 9 -13 11 -20 15
-17 9z m1592 -224 c3 -6 -1 -7 -9 -4 -18 7 -21 14 -7 14 6 0 13 -4 16 -10z
m-3678 -935 c0 -8 -4 -12 -9 -9 -5 3 -6 10 -3 15 9 13 12 11 12 -6z m-187
-1689 c0 -3 -4 -8 -10 -11 -5 -3 -10 -1 -10 4 0 6 5 11 10 11 6 0 10 -2 10 -4z
m3220 -2112 c0 -8 -19 -13 -24 -6 -3 5 1 9 9 9 8 0 15 -2 15 -3z"/>
<path d="M1050 4809 c0 -5 5 -7 10 -4 6 3 10 8 10 11 0 2 -4 4 -10 4 -5 0 -10
-5 -10 -11z"/>
<path d="M4420 4566 c0 -2 8 -10 18 -17 15 -13 16 -12 3 4 -13 16 -21 21 -21
13z"/>
<path d="M948 363 c7 -3 16 -2 19 1 4 3 -2 6 -13 5 -11 0 -14 -3 -6 -6z"/>
</g>
</svg>
